<?xml version="1.0" encoding="iso-8859-1"?>
<!-- Generator: Adobe Illustrator 19.1.0, SVG Export Plug-In . SVG Version: 6.00 Build 0)  -->
<svg version="1.1" id="Capa_1" xmlns="http://www.w3.org/2000/svg" xmlnsXlink="http://www.w3.org/1999/xlink" x="0px" y="0px"
	 viewBox="0 0 229.472 229.472" style="enable-background:new 0 0 229.472 229.472;" xml:space="preserve">
<g>
	<g>
		<g>
			<g>
				<path d="M9.79,169.625c0,0-4.123,23.82,6.526,23.82h197.416c8.676,0,6.517-23.82,6.517-23.82H9.79z
					 M6.517,120.793h216.458v17.713H6.517V120.793z M111.136,149.361c1.651-0.098,2.863,0.684,3.449,1.485
					c1.221-0.225,3.156-0.645,6.165-1.466c7.074-1.837,10.073-3.762,12.398-5.325h-24.943l1.856,3.38L111.136,149.361z
					 M88.508,146.137c1.944,0.156,3.674-0.84,5.295-2.081h-9.897C85.254,145.473,85.821,146.059,88.508,146.137z M184.031,144.056
					h-7.328l4.66,1.739L184.031,144.056z M34.244,153.807c5.686-2.022,10.669-5.149,15.476-8.168l2.579-1.583H15.662
					C17.811,147.974,24.22,157.373,34.244,153.807z M8.989,145.619l2.921-1.563H0v17.713h29.154
					C18.827,161.34,11.656,151.736,8.989,145.619z M206.307,144.056l9.497,5.686l-3.068,6.351l-17.918-10.689l-12.731,8.305
					l-16.062-6.048h-21.729c-3.967,0-5.12,0.791-7.474,2.374c-2.628,1.807-6.214,4.211-14.567,6.399
					c-8.93,2.306-11.363,2.648-13.024,0.264l-0.44-0.625c-2.394-0.997-3.547-3.38-4.436-5.208c-0.664-1.358-1.397-2.863-2.648-4.426
					l-2.032,1.847c-2.638,2.218-6.321,5.286-11.353,5.09c-5.168-0.166-7.152-2.237-8.901-4.074
					c-1.426-1.524-2.941-3.107-7.894-4.162c-5.735-1.28-11.705,2.482-18.602,6.82c-4.856,3.048-10.376,6.478-16.678,8.754
					c-1.944,0.674-3.771,0.997-5.53,1.055h198.754v-17.713L206.307,144.056L206.307,144.056z M29.838,161.848l0.879-0.078h-1.563
					L29.838,161.848z M128.575,36.321c-2.599-0.215-17.733-0.293-20.371-0.293c-46.105,0-81.434,33.932-99.255,77.78l210.01-0.606
					C202.663,70.379,172.248,39.652,128.575,36.321z"/>
			</g>
		</g>
	</g>
</g>
<g>
</g>
<g>
</g>
<g>
</g>
<g>
</g>
<g>
</g>
<g>
</g>
<g>
</g>
<g>
</g>
<g>
</g>
<g>
</g>
<g>
</g>
<g>
</g>
<g>
</g>
<g>
</g>
<g>
</g>
</svg>
